<?xml version="1.0" encoding="utf-8"?>
<!-- Generator: Adobe Illustrator 26.3.1, SVG Export Plug-In . SVG Version: 6.00 Build 0)  -->
<svg version="1.1" id="Layer_1" xmlns="http://www.w3.org/2000/svg" xmlns:xlink="http://www.w3.org/1999/xlink" x="0px" y="0px"
	 viewBox="0 0 442.9 182.9" style="enable-background:new 0 0 442.9 182.9;" xml:space="preserve">
<style type="text/css">
	.st0{fill:#212121;}
</style>
<g>
	<path class="st0" d="M-0.1,82.1l15.3-81h20.4l15.1,81H34.2L31.5,65H19.6l-2.8,17.1H-0.1z M21.2,54.3h8.6l-4.3-31.6L21.2,54.3z"/>
	<path class="st0" d="M59.1,82.1v-81h12.6l16.6,39v-39h14.8v81H91l-16.6-42v42H59.1z"/>
	<path class="st0" d="M111.4,82.1l15.3-81h20.4l15.1,81h-16.5L143,65h-11.9l-2.8,17.1H111.4z M132.7,54.3h8.6L137,22.7L132.7,54.3z"
		/>
	<path class="st0" d="M191,83.3c-5.1,0-9.3-0.9-12.7-2.7c-3.4-1.8-6-4.6-7.7-8.4c-1.7-3.8-2.7-8.6-2.9-14.6l15.3-2.3
		c0.1,3.5,0.4,6.3,1,8.4c0.6,2.1,1.4,3.7,2.4,4.6c1,0.9,2.3,1.4,3.8,1.4c1.9,0,3.1-0.6,3.6-1.9c0.6-1.3,0.9-2.6,0.9-4
		c0-3.3-0.8-6.2-2.4-8.5c-1.6-2.3-3.8-4.6-6.5-7l-7-6.1c-3.1-2.6-5.7-5.6-7.8-8.9c-2.1-3.3-3.2-7.4-3.2-12.2c0-6.9,2-12.1,6.1-15.8
		C178,1.8,183.5,0,190.5,0c4.3,0,7.8,0.7,10.5,2.2c2.6,1.5,4.6,3.4,6,5.8c1.4,2.4,2.3,4.9,2.8,7.5c0.5,2.6,0.8,5.1,0.9,7.5
		l-15.4,1.9c-0.1-2.4-0.2-4.5-0.5-6.2c-0.2-1.8-0.7-3.1-1.5-4.1c-0.7-1-1.9-1.5-3.4-1.5c-1.7,0-2.9,0.7-3.6,2.1
		c-0.8,1.4-1.1,2.8-1.1,4.2c0,3,0.7,5.5,2.1,7.4c1.4,1.9,3.3,3.9,5.6,6l6.7,5.9c3.5,3,6.5,6.4,8.9,10.2c2.4,3.8,3.7,8.5,3.7,14.1
		c0,3.8-0.9,7.2-2.6,10.4c-1.7,3.1-4.2,5.6-7.4,7.4C199.1,82.4,195.4,83.3,191,83.3z"/>
	<path class="st0" d="M228.2,82.1V14.4H216V1.1h42.3v13.3h-12.1v67.7H228.2z"/>
	<path class="st0" d="M257.9,82.1l15.3-81h20.4l15.1,81h-16.5L289.5,65h-11.9l-2.8,17.1H257.9z M279.2,54.3h8.6l-4.3-31.6
		L279.2,54.3z"/>
	<path class="st0" d="M336.6,83.3c-5.1,0-9.3-0.9-12.7-2.7c-3.4-1.8-6-4.6-7.7-8.4c-1.7-3.8-2.7-8.6-2.9-14.6l15.3-2.3
		c0.1,3.5,0.4,6.3,1,8.4c0.6,2.1,1.4,3.7,2.4,4.6c1,0.9,2.3,1.4,3.8,1.4c1.9,0,3.1-0.6,3.7-1.9c0.6-1.3,0.8-2.6,0.8-4
		c0-3.3-0.8-6.2-2.4-8.5c-1.6-2.3-3.8-4.6-6.5-7l-7-6.1c-3.1-2.6-5.7-5.6-7.8-8.9c-2.1-3.3-3.2-7.4-3.2-12.2c0-6.9,2-12.1,6.1-15.8
		c4.1-3.6,9.6-5.5,16.6-5.5c4.3,0,7.8,0.7,10.5,2.2c2.6,1.5,4.6,3.4,6,5.8c1.4,2.4,2.3,4.9,2.8,7.5c0.5,2.6,0.8,5.1,0.8,7.5
		l-15.4,1.9c-0.1-2.4-0.2-4.5-0.5-6.2c-0.2-1.8-0.7-3.1-1.5-4.1c-0.7-1-1.9-1.5-3.4-1.5c-1.7,0-2.9,0.7-3.7,2.1
		c-0.8,1.4-1.2,2.8-1.2,4.2c0,3,0.7,5.5,2.2,7.4c1.4,1.9,3.3,3.9,5.7,6l6.7,5.9c3.5,3,6.5,6.4,9,10.2c2.4,3.8,3.7,8.5,3.7,14.1
		c0,3.8-0.9,7.2-2.6,10.4c-1.7,3.1-4.2,5.6-7.3,7.4C344.7,82.4,341,83.3,336.6,83.3z"/>
	<path class="st0" d="M366,82.1v-81h17.9v81H366z"/>
	<path class="st0" d="M392.1,82.1l15.3-81h20.4l15.1,81h-16.5L423.7,65h-11.9L409,82.1H392.1z M413.4,54.3h8.6l-4.3-31.6L413.4,54.3
		z"/>
	<path class="st0" d="M12.2,182.9v-67.7H0v-13.3h42.3v13.3H30.2v67.7H12.2z"/>
	<path class="st0" d="M61.6,182.9v-33.1l-15.4-47.9h16.9l7.7,25.6l6.9-25.6h16.2l-15.1,47.9v33.1H61.6z"/>
	<g>
		<path class="st0" d="M123.5,184.1c-6.2,0-11-1-14.5-3.1s-6-5-7.4-8.9s-2.1-8.7-2.1-14.4v-55.9h17.7v58.6c0,1.7,0.1,3.3,0.4,5
			c0.3,1.7,0.9,3,1.8,4.1c0.9,1.1,2.3,1.6,4.1,1.6c1.9,0,3.3-0.5,4.2-1.6c0.9-1.1,1.4-2.4,1.6-4.1c0.2-1.7,0.4-3.3,0.4-5v-58.6h17.8
			v55.9c0,5.7-0.7,10.5-2.1,14.4c-1.4,3.9-3.9,6.9-7.4,8.9C134.5,183,129.7,184.1,123.5,184.1z"/>
		<path class="st0" d="M157.5,182.9v-81h17.9v68.9H194v12.1H157.5z"/>
		<path class="st0" d="M204,182.9v-81h36.4v12.2h-18.5v20.1H236v12.4h-14.1v24.2h18.7v12.1H204z"/>
		<path class="st0" d="M250.7,182.9v-81h12.6l16.6,39v-39h14.8v81h-12.1l-16.6-42v42H250.7z"/>
		<path class="st0" d="M304.7,182.9v-81h36.4v12.2h-18.5v20.1h14.1v12.4h-14.1v24.2h18.7v12.1H304.7z"/>
	</g>
	<path class="st0" d="M362.3,182.9l-14.6-81H363l8.7,55l8.1-55H396l-14.8,81H362.3z"/>
	<path class="st0" d="M392.1,182.9l15.3-81h20.4l15.1,81h-16.5l-2.7-17.1h-11.9l-2.8,17.1H392.1z M413.4,155.1h8.6l-4.3-31.6
		L413.4,155.1z"/>
</g>
</svg>
